<?xml version="1.0" encoding="UTF-8"?>
<svg xmlns="http://www.w3.org/2000/svg" xmlns:xlink="http://www.w3.org/1999/xlink" viewBox="0 0 24 24" width="24px" height="24px">
<g id="surface83999863">
<path style="fill-rule:nonzero;fill:rgb(0%,0%,0%);fill-opacity:1;stroke-width:10;stroke-linecap:butt;stroke-linejoin:round;stroke:rgb(80.000001%,80.000001%,80.000001%);stroke-opacity:1;stroke-miterlimit:10;" d="M 157.680936 35.835236 L 157.680936 50.159536 L 14.319069 50.159536 L 14.319069 35.835236 Z M 157.680936 78.837853 L 157.680936 93.162152 L 14.319069 93.162152 L 14.319069 78.837853 Z M 157.680936 121.840469 L 157.680936 136.164769 L 14.319069 136.164769 L 14.319069 121.840469 Z M 157.680936 121.840469 " transform="matrix(0.131442,0,0,0.131442,0.696,0.696)"/>
<path style=" stroke:none;fill-rule:nonzero;fill:rgb(100%,100%,100%);fill-opacity:1;" d="M 2.578125 5.40625 L 2.578125 7.289062 L 21.421875 7.289062 L 21.421875 5.40625 Z M 2.578125 11.058594 L 2.578125 12.941406 L 21.421875 12.941406 L 21.421875 11.058594 Z M 2.578125 16.710938 L 2.578125 18.59375 L 21.421875 18.59375 L 21.421875 16.710938 Z M 2.578125 16.710938 "/>
</g>
</svg>
